<?xml version="1.0" encoding="UTF-8"?>
<svg id="Layer_1" xmlns="http://www.w3.org/2000/svg" version="1.1" viewBox="0 0 1197.3 164">
  <g>
    <path fill="currentColor" d="M170.6,148c-15.3,0-31.1-.9-47.3-2.6V17.5c8.6-.9,16.6-1.6,23.8-2s14.2-.6,21-.6c19.3,0,33.3,3,42.2,8.9,8.9,6,13.3,15.3,13.3,28s-7,23.8-21,27.5v.7c8.1,1.6,14.2,5.1,18.5,10.2,4.3,5.2,6.4,12,6.4,20.4,0,12.7-4.6,22.1-13.9,28.2-9.3,6.1-23.6,9.1-43,9.1h0ZM170.3,69.8c7.5,0,12.7-1.2,15.7-3.5s4.5-6.4,4.5-12.3-1.5-9.4-4.6-11.7-8.2-3.5-15.3-3.5-10.9.4-15.8,1.1v30h15.6,0ZM172,124c14.7,0,22.1-5.4,22.1-16.1s-1.7-9.8-5-12.2-9-3.6-17.1-3.6h-17.3v31.2c1.5.2,3.4.4,5.8.5,2.3,0,6.2.2,11.6.2h-.1Z"/>
    <path fill="currentColor" d="M294.6,104c-1.5,0-3.1.2-4.7.2h-13v42.2h-33.5V17.6c6.4-.9,12.9-1.6,19.4-2s12.9-.6,19.2-.6c11.6,0,21.5.8,29.7,2.5,8.2,1.7,15,4.4,20.4,8.1s9.3,8.4,11.8,14c2.5,5.7,3.8,12.4,3.8,20.2,0,18.7-8,31.4-24,38.2l29.4,48.4h-36.4l-22.1-42.2v-.2h0ZM288.3,78.6c4.9,0,9-.3,12.2-1,3.2-.6,5.8-1.7,7.8-3.2s3.4-3.4,4.2-5.8c.8-2.4,1.2-5.3,1.2-8.8s-.4-6.6-1.2-9-2.2-4.3-4.1-5.8-4.5-2.5-7.7-3.1-7.2-.9-12-.9-3.6,0-6,.2c-2.3,0-4.3.3-5.8.5v35.9c1.3.3,2.9.6,4.8.7,1.9,0,4.1.2,6.6.2h0Z"/>
    <path fill="currentColor" d="M353.3,144.7l38.2-128.1h49.8l38.4,128.1v1.6h-32.1l-8.6-29.1h-45.4l-8.4,29.1h-31.9v-1.6ZM432,91.2l-7.7-27.3-6.7-23.8h-2.5l-6.7,24-7.7,27.2h31.3Z"/>
    <path fill="currentColor" d="M490,16.6h26.8l47.5,63.4,9.1,14.2h1.8V16.6h29.1v129.6h-26.6l-46.8-62.5-10-15.2h-1.6v77.8h-29.3V16.7h0Z"/>
    <path fill="currentColor" d="M662.9,148.2c-6.2,0-12.5-.2-18.8-.5-6.4-.4-12.4-.9-18.1-1.6V16.8c9.3-.6,17.4-1.1,24.1-1.4,6.7-.3,12.7-.5,18-.5,12.5,0,23.2,1.3,32.1,3.8,8.9,2.5,16.3,6.5,22,11.8,5.7,5.4,9.9,12.3,12.6,20.8,2.7,8.5,4,18.6,4,30.4s-1.4,22.3-4.2,30.7-7.2,15.3-13.2,20.6-13.8,9.2-23.5,11.7c-9.6,2.5-21.3,3.7-35,3.7v-.2h0ZM675.7,121.7c5.5,0,10.1-.6,13.8-1.9s6.7-3.4,8.9-6.5c2.2-3,3.8-7.2,4.7-12.4s1.4-11.7,1.4-19.5-.5-14.1-1.6-19.3c-1-5.1-2.8-9.3-5.2-12.4s-5.6-5.3-9.5-6.6c-4-1.3-8.9-1.9-14.9-1.9s-4.6,0-6.8.3c-2.2.2-4.7.4-7.5.6v78.5c6,.7,11.5,1.1,16.6,1.1h0Z"/>
  </g>
  <g>
    <path fill="currentColor" d="M789.4,16.6h33.5v103.4h49.6v26.3h-83V16.7h0Z"/>
    <path fill="currentColor" d="M885.4,16.6h33.5v129.6h-33.5V16.6h0Z"/>
    <path fill="currentColor" d="M940.6,16.6h26.8l47.5,63.4,9.1,14.2h1.8V16.6h29.1v129.6h-26.6l-46.8-62.5-10-15.2h-1.6v77.8h-29.3V16.7h0Z"/>
    <path fill="currentColor" d="M1076.5,16.6h33.5v50.8h15.1l25.9-50.8h37l-31.7,57.3-9.5,4.6v1.4l9.8,4.9,34.7,61.5h-37.1l-28-52.4h-16.1v52.4h-33.5V16.7h-.1Z"/>
  </g>
  <g>
    <path fill="currentColor" d="M77.4,17.1c-7.1-2.7-14.5-2.7-21.3-.6-6.8,2.2-12.9,6.7-17,12.9-1.3,1.9-2.3,4-3.2,6.2l-7.2,18.8-3.3,8.6c-.6,1.6-1.4,4.6-1.8,6.6,2.3-3.8,5.1-6.8,8.3-8.9,2.8-1.9,5.9-3.2,9.2-3.9l6.4-16.8c1.7-4.4,4.9-7.9,8.7-10.1,2.9-1.6,6.3-2.5,9.7-2.5s4.7.4,7,1.3c.2,0,.3.1.5.2,9.8,4,14.6,15.2,10.8,25.2l-.9,2.5-3.8,10c-1.3,3.4-2.6,6.8-3.9,10.2-1.5,3.9-2.7,8.8-6.6,11.1-2.6,1.6-5.9,1.3-8.6,0-.7-.3-1.4-.7-2.1-1.2-.7-.6-1.4-1.3-1.9-2.1v-.2c-.5-.9-.8-1.8-1-2.8h0l-10.9,8.8h0c0,.3.3.6.5.8,1,1.6,2.1,3.1,3.4,4.4,4,4,9.5,6.5,15.6,6.5s9.1-1.5,12.6-4h0c.7-.5,1.3-1,1.9-1.5l.4-.4c.2-.2.4-.3.5-.5h0l.4-.4h0c1.6-2,3.1-4.2,4.2-6.6h0c.4-.9.7-1.7,1-2.5l1.4-3.7.3-.7,2.9-7.7.9-2.5,4.9-12.9c6.3-16.5-2-35.1-18.5-41.5h.5Z"/>
    <path fill="currentColor" d="M94.6,106.8l-5.2-17.5c-.2.4-.4.8-.6,1.2v.2c-1.4,2.7-3,5.2-4.9,7.5v.2c0,0-.2,0-.2,0,0,0-.3.4-.6.6h0l-.6.6c-.2.2-.4.3-.5.5-.6.5-1.2,1-1.8,1.4v.4c0,0,2.1,6.7,2.1,6.7l.5,1.5c1.5,5,.9,10.4-1.6,15-2.1,3.9-5.3,6.8-9.3,8.6-.8.3-1.6.6-2.4.9-5.1,1.5-10.4.8-14.7-1.5-4.5-2.4-8.1-6.5-9.7-11.8l-5.7-19.3-2.6-8.9c-1.3-4.4-1.3-9.7,1.3-13.7,2.2-3.5,6.2-5.8,10.4-4.9,1.7.4,3.3,1.1,4.6,2.3h0c.6.7,1.1,1.3,1.5,2,.5.8.7,1.7.9,2.5,0,0,1.9-1.5,4.2-3.3,3.1-2.5,6.8-5.4,6.8-5.4h0c0-.3-.3-.5-.5-.8-1-1.6-2.1-3.1-3.4-4.4-4-4-9.5-6.5-15.6-6.5s-4.3.3-6.4.9c-.6.2-1.2.4-1.7.6-.2,0-.4,0-.6.2-.2,0-.4.2-.6.3,0,0-.2,0-.3,0-.3,0-.6.3-.9.5,0,0-.3,0-.4.2-.4.2-.9.5-1.3.8-.7.4-1.3.9-1.9,1.4-.2.2-.4.3-.6.5h0c-.2.2-.3.4-.5.5h-.1c-.1.2-.3.4-.4.5-1.3,1.3-2.4,2.8-3.3,4.4-.4.7-.9,1.5-1.3,2.2-3.1,6-3.9,12.7-2.7,19.3.2,1,.4,2,.7,3l2.9,9.8,5.4,18.3c1,3.4,2.5,6.5,4.5,9.3,2.8,4,6.5,7.4,11,9.8,2,1.1,4.1,2,6.3,2.6,2.9.9,5.9,1.3,9,1.3s6.1-.4,9.2-1.3c8.2-2.4,15-7.9,19.1-15.5,4.1-7.5,5-16.2,2.6-24.4l-.2.5Z"/>
  </g>
</svg>
